<?xml version="1.0" encoding="UTF-8"?>
<svg id="Layer_2" data-name="Layer 2" xmlns="http://www.w3.org/2000/svg" viewBox="0 0 601.7 595.17">
  <defs>
    <style>
      .cls-1 {
        fill: #fdfdfd;
      }

      .cls-2 {
        fill: #cf0152;
      }
    </style>
  </defs>
  <g id="Layer_1-2" data-name="Layer 1">
    <g>
      <path class="cls-2" d="M0,297.59C.15,134.01,133.21,.08,300.75,0c167.03-.08,301.22,133.22,300.95,298.05-.27,164.6-134.37,297.1-300.72,297.12C133.1,595.19,.14,461.02,0,297.59Zm482.42,210.49c92.05-75.04,117.24-213.48,41.9-318.43-75.62-105.34-209.6-122.09-301.38-75.01,1.94,3.09,3.97,6.1,6.05,9.1,4.26,6.15,8.04,12.62,12.36,18.74,4.04,5.73,7.56,11.81,11.58,17.57,4.37,6.26,8.22,12.87,12.61,19.14,3.89,5.55,7.34,11.4,11.19,16.99,4.61,6.67,8.78,13.64,13.4,20.31,3.59,5.19,6.81,10.62,10.43,15.81,4.46,6.39,8.39,13.13,12.87,19.52,3.89,5.55,7.29,11.42,11.18,16.98,4.47,6.38,8.38,13.13,12.87,19.51,3.81,5.42,7.14,11.15,10.93,16.59,4.59,6.59,8.67,13.51,13.27,20.11,3.79,5.44,7.14,11.16,10.94,16.6,4.42,6.33,8.31,13,12.74,19.33,4.02,5.75,7.68,11.74,11.57,17.58,8.24,12.39,16.3,24.91,24.62,37.25,3.75,5.56,7.2,11.3,11.04,16.81,4.46,6.4,8.42,13.12,12.88,19.52,3.83,5.5,7.24,11.28,11.07,16.8,4.4,6.34,8.31,13,12.74,19.33,2.5,3.58,4.73,7.35,7.13,11,1.92,2.92,3.92,5.79,6.01,8.86Zm-203.42-163.09c-14.08,27.1-35.37,45.25-64.91,53.04-29.6,7.8-57.5,3.04-82.77-14.02-24.15-16.3-38.85-39.17-42.63-67.87-5.38-40.8,10.39-72.93,43.47-97.3-3.84-3.23-7.47-6.55-11.29-9.67-5.69-4.65-11.11-9.63-16.71-14.39-6.55-5.58-13.05-11.21-19.56-16.83-.24-.2-.48-.4-.72-.61-.43-.38-.83-.4-1.18,.09-.23,.31-.45,.64-.67,.96-7.04,10.34-13.19,21.18-18.46,32.5-13.05,28.01-20.31,57.44-21.81,88.24-.84,17.38,.25,34.68,3.32,51.83,3.97,22.18,10.93,43.4,20.99,63.62,13.1,26.32,30.53,49.46,52.29,69.38,19.38,17.73,41.15,31.88,65.29,42.49,25.97,11.41,53.14,17.98,81.46,19.9,14.63,.99,29.23,.53,43.8-1.18,14.86-1.74,29.44-4.8,43.7-9.27,32.6-10.22,61.71-26.55,87.28-49.02,.64-.56,1.38-1.02,1.77-1.9-.45-.41-.9-.85-1.37-1.25-3.86-3.3-7.73-6.61-11.6-9.9-3.46-2.93-6.8-5.98-10.32-8.85-5.7-4.64-11.02-9.73-16.73-14.37-5.04-4.09-9.79-8.51-14.74-12.71-10.73-9.12-21.27-18.45-32.07-27.49-4.97-4.17-9.68-8.63-14.74-12.71-5.59-4.52-10.76-9.53-16.36-14.07-5.22-4.23-10.11-8.86-15.28-13.17-7.99-6.66-15.75-13.59-23.61-20.41-1.88-1.63-3.76-3.26-5.82-5.05Zm-11.6-.79c.22-8.7-7.2-16.46-16.64-16.4-9.23,.06-16.63,7.42-16.58,16.52,.06,9.79,8.4,16.42,16.71,16.41,8.2,0,16.74-6.8,16.51-16.54ZM408.11,41.42c-1.35-.32-2.35-1.25-3.48-1.92-2.63-1.56-5.18-3.24-7.84-4.75-1.72-.98-2.6-.56-3.11,1.31-.49,1.8-.78,3.66-1.33,5.44-.72,2.29,.01,3.84,1.98,5.14,2.88,1.9,5.64,3.96,8.45,5.96,1.65,1.18,1.62,1.18,1.2,3.04-.69,3.03-1.39,6.06-2.04,9.11-.68,3.22-.66,3.23,2.26,4.86,.11,.06,.29-.02,.6-.04,.83-4.39,1.45-8.88,2.84-13.44,1.93,1.4,3.62,2.65,5.33,3.88,.85,.61,1.77,1.17,2.79,.39,2.55-1.95,5.1-3.91,7.58-5.94,.89-.73,.88-1.78,.1-2.68-.4-.46-.94-.82-1.46-1.16-2.55-1.68-5.11-3.35-7.68-5q-3.14-2.02-1.83-5.52,.72-1.92-1-3.18c-.31-.23-.65-.41-1.01-.64-1.15,1.58-1.3,3.54-2.36,5.16Zm40.3,43.54c1.94-.12,4.45-.23,6.95-.44,2.51-.21,2.93-.87,2.11-3.13-1.59-4.38-3.2-8.75-4.8-13.12-.29-.8-.53-1.7-1.23-2.22-4.14-3.07-8.53-5.78-12.94-8.45-1.07-.65-1.97-.02-2.16,1.24-.07,.45-.02,.93,0,1.39,.31,4.57,.63,9.13,.96,13.7,.21,2.86,.37,5.73,.67,8.59,.25,2.4,1.18,3.11,3.55,2.95,2.11-.14,4.22-.31,6.9-.5Zm-92.41-33.27c.33,1.14,1.09,1.85,1.67,2.66,.68,.96,1.41,1.04,2.38,.36,1.34-.94,2.76-1.78,4.14-2.68,.55-.36,1.02-.55,1.71-.16,3.75,2.11,7.54,4.17,11.32,6.22,.75,.4,1.17,.96,1.38,1.77,.4,1.58,.85,3.15,1.29,4.72q.87,3.08,4.05,3.65c.05,0,.12-.08,.32-.23-.05-.27-.08-.63-.18-.99-.7-2.63-1.46-5.24-2.12-7.88-1.29-5.13-2.41-10.29-3.36-15.5-.59-3.23-2.61-4.14-5.39-2.46-3.02,1.82-6.02,3.66-9.03,5.5-2.74,1.67-5.47,3.34-8.19,5Zm117.45,55.36c.2-.62,.38-1.12,.52-1.64,.72-2.62,1.46-5.24,2.11-7.88,.28-1.1,.69-1.34,1.79-.86,2.65,1.16,5.36,2.2,8.06,3.26,.41,.16,.91,.53,1.31,.16,.58-.55,.69-1.37,.85-2.11,.17-.75-.57-.84-1.03-1.03-2.52-1.04-5.06-2.04-7.55-3.04,.14-.83,.79-.86,1.26-1.09,1.41-.69,2.83-1.34,4.26-1.99,.42-.19,1.05-.4,.88-.9-.3-.86-.69-1.79-1.32-2.43-.57-.58-1.3,.14-1.91,.41-6.2,2.83-12.39,5.68-18.58,8.54-1.96,.91-1.93,.99-.99,2.92,.5,1.03,1.06,1.13,2.02,.66,1.97-.97,3.97-1.87,5.97-2.76,.45-.2,.89-.69,1.6-.12-.6,2.26-1.17,4.59-1.86,6.88-.32,1.07-.12,1.78,.87,2.31,.48,.25,.89,.64,1.72,.7Zm-76.93-34.3c-.26-.8-.49-1.54-.74-2.28-3.56-10.88-6.55-21.9-8.67-33.15-.52-2.78-.51-2.79-3.33-2.21-.2,.04-.37,.24-.59,.39,1.12,6.15,2.6,12.19,4.23,18.19,1.59,5.86,3.39,11.64,5.32,17.4,.34,1.02,.83,1.62,1.92,1.68,.54,.03,1.06,.29,1.86-.02Zm103.85,33.08c-.39,.66-1.02,.85-1.55,1.16-1.62,.95-3.23,1.94-4.9,2.79-1.07,.54-1.12,1.13-.47,1.98,.24,.31,.47,.63,.64,.98,.37,.78,.85,.75,1.51,.35,1.07-.65,2.14-1.31,3.26-1.87,1.24-.62,2.4-2.1,3.69-1.71,1.25,.38,1.69,2.12,2.46,3.28,.07,.11,0,.29,0,.47-1.99,1.32-4.01,2.65-6.01,4.01-1.43,.98-1.44,2.43-.07,3.53,.35,.28,.73,.32,1.09,.12,.55-.3,1.07-.66,1.59-1,1.86-1.23,3.72-2.47,5.65-3.76,.73,1.07,1.34,1.97,1.95,2.87,.81,1.19,1.49,.11,2.18-.16,.88-.35,.59-.93,.21-1.49-3.28-4.94-6.58-9.86-9.82-14.83-.82-1.25-1.56-.5-2.38-.15-1.11,.49-.45,1.1-.11,1.67,.35,.6,.73,1.19,1.07,1.74Zm-71.24-55.9c-1.58-.03-1.69,.05-1.5,1.57,1.2,9.31,2.41,18.62,3.63,27.93,.17,1.31,.3,2.62,.56,3.91,.29,1.44,1.5,.74,2.32,.8,.84,.06,.69-.67,.63-1.19-.29-2.39-.61-4.77-.92-7.16-1.08-8.15-2.19-16.3-3.22-24.46-.14-1.09-.53-1.56-1.48-1.41Zm42.01,26.35c-1.41,3.87-2.77,7.58-4.11,11.3-.13,.35-.4,.82-.06,1.08,.69,.54,1.6,.57,2.44,.68,.75,.1,.81-.6,.99-1.08,.99-2.69,1.97-5.39,2.95-8.08q1-2.75-2.21-3.89Zm47.67,52.32c-2.39,.01-3.06,.54-2.87,2.26,.38,3.41,2.29,5.13,5.72,5.14,1.53,0,2.17-.67,1.87-2.18-.18-.9-.58-1.76-.91-2.62-.88-2.28-1.37-2.61-3.8-2.6Zm-50.89-53.98c.02-.49-.26-.77-.57-1-2.21-1.59-4.42-3.17-6.64-4.74-.63-.44-1.08-.35-1.45,.42-.62,1.31-.64,1.69,.52,2.55,1.87,1.39,3.78,2.73,5.69,4.06,.41,.29,.83,.89,1.4,.41,.52-.45,.87-1.08,1.06-1.71Z"/>
      <path class="cls-1" d="M482.42,508.07c-2.09-3.07-4.09-5.94-6.01-8.86-2.4-3.65-4.63-7.42-7.13-11-4.43-6.33-8.34-12.99-12.74-19.33-3.83-5.52-7.23-11.3-11.07-16.8-4.46-6.4-8.43-13.13-12.88-19.52-3.84-5.51-7.29-11.25-11.04-16.81-8.32-12.34-16.38-24.85-24.62-37.25-3.88-5.84-7.55-11.83-11.57-17.58-4.43-6.33-8.32-13-12.74-19.33-3.8-5.44-7.15-11.16-10.94-16.6-4.59-6.6-8.68-13.52-13.27-20.11-3.79-5.44-7.13-11.17-10.93-16.59-4.48-6.38-8.4-13.13-12.87-19.51-3.9-5.56-7.29-11.43-11.18-16.98-4.48-6.39-8.42-13.13-12.87-19.52-3.62-5.19-6.84-10.62-10.43-15.81-4.62-6.67-8.79-13.64-13.4-20.31-3.86-5.59-7.3-11.43-11.19-16.99-4.39-6.27-8.24-12.87-12.61-19.14-4.02-5.76-7.54-11.84-11.58-17.57-4.32-6.13-8.1-12.59-12.36-18.74-2.07-3-4.11-6.01-6.05-9.1,91.78-47.08,225.76-30.34,301.38,75.01,75.34,104.95,50.15,243.39-41.9,318.43Z"/>
      <path class="cls-1" d="M279,344.98c2.06,1.79,3.94,3.42,5.82,5.05,7.86,6.82,15.62,13.75,23.61,20.41,5.17,4.31,10.06,8.93,15.28,13.17,5.6,4.54,10.77,9.55,16.36,14.07,5.05,4.09,9.76,8.55,14.74,12.71,10.8,9.04,21.34,18.37,32.07,27.49,4.95,4.2,9.7,8.62,14.74,12.71,5.72,4.64,11.03,9.73,16.73,14.37,3.52,2.87,6.87,5.92,10.32,8.85,3.88,3.29,7.74,6.59,11.6,9.9,.47,.4,.92,.84,1.37,1.25-.39,.87-1.13,1.34-1.77,1.9-25.57,22.47-54.68,38.81-87.28,49.02-14.26,4.47-28.84,7.53-43.7,9.27-14.57,1.71-29.17,2.17-43.8,1.18-28.32-1.92-55.49-8.49-81.46-19.9-24.14-10.61-45.91-24.76-65.29-42.49-21.76-19.92-39.19-43.06-52.29-69.38-10.06-20.22-17.02-41.44-20.99-63.62-3.07-17.15-4.16-34.44-3.32-51.83,1.49-30.8,8.75-60.23,21.81-88.24,5.27-11.32,11.43-22.16,18.46-32.5,.22-.32,.44-.65,.67-.96,.36-.49,.76-.47,1.18-.09,.24,.21,.48,.4,.72,.61,6.51,5.62,13.01,11.25,19.56,16.83,5.6,4.77,11.02,9.74,16.71,14.39,3.82,3.12,7.45,6.45,11.29,9.67-33.08,24.38-48.85,56.5-43.47,97.3,3.79,28.7,18.48,51.56,42.63,67.87,25.27,17.06,53.17,21.82,82.77,14.02,29.55-7.79,50.84-25.94,64.91-53.04Z"/>
      <path class="cls-1" d="M267.4,344.19c.23,9.73-8.31,16.53-16.51,16.54-8.31,0-16.65-6.61-16.71-16.41-.05-9.11,7.35-16.46,16.58-16.52,9.44-.06,16.86,7.69,16.64,16.4Z"/>
      <path class="cls-1" d="M408.11,41.42c1.05-1.62,1.21-3.58,2.36-5.16,.36,.23,.7,.41,1.01,.64q1.72,1.26,1,3.18-1.31,3.52,1.83,5.52c2.57,1.65,5.13,3.32,7.68,5,.52,.34,1.05,.7,1.46,1.16,.79,.9,.8,1.95-.1,2.68-2.49,2.03-5.03,3.99-7.58,5.94-1.02,.78-1.94,.22-2.79-.39-1.71-1.22-3.4-2.47-5.33-3.88-1.39,4.56-2.01,9.05-2.84,13.44-.31,.03-.49,.1-.6,.04-2.92-1.63-2.95-1.64-2.26-4.86,.65-3.04,1.34-6.07,2.04-9.11,.43-1.86,.45-1.87-1.2-3.04-2.8-2-5.57-4.06-8.45-5.96-1.97-1.3-2.7-2.85-1.98-5.14,.56-1.78,.85-3.64,1.33-5.44,.51-1.87,1.39-2.29,3.11-1.31,2.66,1.51,5.21,3.19,7.84,4.75,1.13,.67,2.12,1.6,3.48,1.92Zm-2.97,9.6c.65-2.04,1.12-3.67,1.7-5.26,.39-1.07,.14-1.69-.85-2.27-2.49-1.46-4.91-3.02-7.37-4.52-.44-.26-.84-.73-1.54-.46-.62,1.54-.81,3.24-1.23,4.88-.16,.61,.01,1.06,.51,1.41,2.84,2.01,5.68,4.03,8.78,6.22Zm15.07,1.54c-3.43-2.2-6.55-4.2-9.68-6.21-.5,.68-.62,1.28-.81,1.87-1.68,5.4-1.67,5.38,2.99,8.43,.81,.53,1.36,.48,2.07-.07,1.66-1.28,3.37-2.51,5.43-4.03Z"/>
      <path class="cls-1" d="M448.4,84.97c-2.67,.2-4.78,.36-6.9,.5-2.37,.16-3.3-.54-3.55-2.95-.3-2.85-.46-5.72-.67-8.59-.33-4.57-.65-9.13-.96-13.7-.03-.46-.07-.94,0-1.39,.19-1.26,1.09-1.89,2.16-1.24,4.41,2.67,8.8,5.37,12.94,8.45,.7,.52,.94,1.42,1.23,2.22,1.61,4.37,3.21,8.74,4.8,13.12,.82,2.26,.4,2.92-2.11,3.13-2.5,.21-5.01,.32-6.95,.44Zm-8.86-23.2c.47,6.71,.92,12.83,1.31,18.95,.07,1.12,.66,1.23,1.54,1.16,3.53-.26,7.05-.5,10.58-.76,.37-.03,.79-.02,1.07-.55-1.36-3.71-2.75-7.5-4.12-11.29-.19-.52-.41-1.03-.88-1.34-3-1.96-6-3.9-9.5-6.16Z"/>
      <path class="cls-1" d="M355.99,51.7c2.72-1.66,5.46-3.33,8.19-5,3.01-1.84,6.02-3.68,9.03-5.5,2.78-1.68,4.8-.77,5.39,2.46,.95,5.2,2.07,10.37,3.36,15.5,.66,2.64,1.42,5.25,2.12,7.88,.09,.35,.13,.72,.18,.99-.2,.15-.27,.24-.32,.23q-3.18-.57-4.05-3.65c-.44-1.57-.89-3.14-1.29-4.72-.21-.81-.63-1.37-1.38-1.77-3.79-2.05-7.57-4.11-11.32-6.22-.69-.39-1.16-.2-1.71,.16-1.38,.9-2.8,1.73-4.14,2.68-.97,.68-1.7,.6-2.38-.36-.58-.82-1.34-1.52-1.67-2.66Zm21.33,3.4c-.78-3.53-1.45-6.58-2.19-9.94-2.62,1.5-4.96,2.99-7.43,4.75,3.28,1.77,6.26,3.37,9.63,5.19Z"/>
      <path class="cls-1" d="M473.44,107.06c-.83-.06-1.25-.45-1.72-.7-.99-.53-1.2-1.24-.87-2.31,.69-2.29,1.26-4.62,1.86-6.88-.71-.57-1.15-.08-1.6,.12-2,.9-4,1.8-5.97,2.76-.96,.47-1.52,.37-2.02-.66-.94-1.93-.98-2.01,.99-2.92,6.19-2.86,12.38-5.71,18.58-8.54,.61-.28,1.33-.99,1.91-.41,.63,.64,1.02,1.56,1.32,2.43,.17,.5-.46,.7-.88,.9-1.42,.65-2.85,1.3-4.26,1.99-.46,.23-1.12,.26-1.26,1.09,2.49,1,5.02,2,7.55,3.04,.47,.19,1.2,.29,1.03,1.03-.17,.74-.27,1.57-.85,2.11-.4,.37-.9,0-1.31-.16-2.7-1.06-5.41-2.1-8.06-3.26-1.1-.48-1.52-.24-1.79,.86-.66,2.64-1.4,5.26-2.11,7.88-.14,.52-.32,1.02-.52,1.64Z"/>
      <path class="cls-1" d="M396.51,72.76c-.8,.31-1.32,.05-1.86,.02-1.09-.06-1.58-.66-1.92-1.68-1.93-5.75-3.73-11.54-5.32-17.4-1.63-6-3.1-12.04-4.23-18.19,.22-.15,.39-.35,.59-.39,2.82-.57,2.81-.57,3.33,2.21,2.12,11.25,5.11,22.27,8.67,33.15,.24,.74,.48,1.48,.74,2.28Z"/>
      <path class="cls-1" d="M500.36,105.84c-.34-.56-.72-1.14-1.07-1.74-.33-.57-.99-1.19,.11-1.67,.82-.36,1.56-1.11,2.38,.15,3.24,4.97,6.54,9.89,9.82,14.83,.38,.57,.66,1.15-.21,1.49-.69,.27-1.37,1.35-2.18,.16-.62-.9-1.22-1.8-1.95-2.87-1.93,1.28-3.79,2.52-5.65,3.76-.52,.35-1.04,.7-1.59,1-.36,.2-.74,.16-1.09-.12-1.37-1.1-1.37-2.55,.07-3.53,2-1.36,4.02-2.69,6.01-4.01,0-.18,.06-.37,0-.47-.76-1.16-1.21-2.9-2.46-3.28-1.29-.39-2.45,1.09-3.69,1.71-1.12,.56-2.19,1.22-3.26,1.87-.65,.4-1.14,.43-1.51-.35-.16-.35-.4-.67-.64-.98-.65-.86-.6-1.44,.47-1.98,1.67-.85,3.28-1.84,4.9-2.79,.53-.31,1.16-.5,1.55-1.16Z"/>
      <path class="cls-1" d="M429.12,49.95c.95-.14,1.35,.32,1.48,1.41,1.03,8.16,2.14,16.31,3.22,24.46,.32,2.38,.63,4.77,.92,7.16,.06,.52,.21,1.25-.63,1.19-.81-.06-2.03,.64-2.32-.8-.26-1.29-.39-2.61-.56-3.91-1.21-9.31-2.43-18.62-3.63-27.93-.2-1.52-.09-1.61,1.5-1.57Z"/>
      <path class="cls-1" d="M471.14,76.29q3.21,1.14,2.21,3.89c-.98,2.7-1.95,5.39-2.95,8.08-.18,.48-.24,1.17-.99,1.08-.84-.11-1.75-.14-2.44-.68-.34-.26-.06-.73,.06-1.08,1.34-3.71,2.7-7.42,4.11-11.3Z"/>
      <path class="cls-1" d="M518.81,128.61c2.43-.01,2.92,.32,3.8,2.6,.33,.86,.73,1.73,.91,2.62,.31,1.5-.33,2.18-1.87,2.18-3.42,0-5.34-1.73-5.72-5.14-.19-1.72,.48-2.25,2.87-2.26Z"/>
      <path class="cls-1" d="M467.92,74.63c-.19,.63-.54,1.26-1.06,1.71-.56,.48-.99-.12-1.4-.41-1.91-1.34-3.82-2.67-5.69-4.06-1.15-.86-1.14-1.24-.52-2.55,.37-.78,.82-.87,1.45-.42,2.22,1.57,4.44,3.15,6.64,4.74,.31,.22,.59,.51,.57,1Z"/>
      <path class="cls-2" d="M405.14,51.02c-3.1-2.2-5.94-4.21-8.78-6.22-.5-.35-.66-.8-.51-1.41,.42-1.64,.61-3.34,1.23-4.88,.7-.27,1.11,.19,1.54,.46,2.46,1.5,4.88,3.07,7.37,4.52,.99,.58,1.24,1.21,.85,2.27-.59,1.59-1.05,3.22-1.7,5.26Z"/>
      <path class="cls-2" d="M420.21,52.56c-2.06,1.53-3.77,2.75-5.43,4.03-.71,.55-1.26,.6-2.07,.07-4.66-3.06-4.67-3.03-2.99-8.43,.18-.59,.31-1.2,.81-1.87,3.13,2.01,6.25,4.01,9.68,6.21Z"/>
      <path class="cls-2" d="M439.55,61.77c3.49,2.26,6.5,4.21,9.5,6.16,.47,.31,.69,.82,.88,1.34,1.38,3.8,2.77,7.59,4.12,11.29-.28,.53-.7,.52-1.07,.55-3.53,.26-7.05,.5-10.58,.76-.89,.07-1.47-.04-1.54-1.16-.39-6.12-.84-12.24-1.31-18.95Z"/>
      <path class="cls-2" d="M377.32,55.1c-3.37-1.82-6.35-3.42-9.63-5.19,2.47-1.76,4.81-3.25,7.43-4.75,.74,3.36,1.42,6.41,2.19,9.94Z"/>
    </g>
  </g>
</svg>